<svg width="16" height="11" viewBox="0 0 16 11" fill="none" xmlns="http://www.w3.org/2000/svg">
<path d="M7.99984 8.66699C8.83317 8.66699 9.5415 8.37533 10.1248 7.79199C10.7082 7.20866 10.9998 6.50033 10.9998 5.66699C10.9998 4.83366 10.7082 4.12533 10.1248 3.54199C9.5415 2.95866 8.83317 2.66699 7.99984 2.66699C7.1665 2.66699 6.45817 2.95866 5.87484 3.54199C5.2915 4.12533 4.99984 4.83366 4.99984 5.66699C4.99984 6.50033 5.2915 7.20866 5.87484 7.79199C6.45817 8.37533 7.1665 8.66699 7.99984 8.66699ZM7.99984 7.46699C7.49984 7.46699 7.07484 7.29199 6.72484 6.94199C6.37484 6.59199 6.19984 6.16699 6.19984 5.66699C6.19984 5.16699 6.37484 4.74199 6.72484 4.39199C7.07484 4.04199 7.49984 3.86699 7.99984 3.86699C8.49984 3.86699 8.92484 4.04199 9.27484 4.39199C9.62484 4.74199 9.79984 5.16699 9.79984 5.66699C9.79984 6.16699 9.62484 6.59199 9.27484 6.94199C8.92484 7.29199 8.49984 7.46699 7.99984 7.46699ZM7.99984 10.667C6.37761 10.667 4.89984 10.2142 3.5665 9.30866C2.23317 8.4031 1.2665 7.18921 0.666504 5.66699C1.2665 4.14477 2.23317 2.93088 3.5665 2.02533C4.89984 1.11977 6.37761 0.666992 7.99984 0.666992C9.62206 0.666992 11.0998 1.11977 12.4332 2.02533C13.7665 2.93088 14.7332 4.14477 15.3332 5.66699C14.7332 7.18921 13.7665 8.4031 12.4332 9.30866C11.0998 10.2142 9.62206 10.667 7.99984 10.667ZM7.99984 9.33366C9.25539 9.33366 10.4082 9.0031 11.4582 8.34199C12.5082 7.68088 13.3109 6.78921 13.8665 5.66699C13.3109 4.54477 12.5082 3.6531 11.4582 2.99199C10.4082 2.33088 9.25539 2.00033 7.99984 2.00033C6.74428 2.00033 5.5915 2.33088 4.5415 2.99199C3.4915 3.6531 2.68873 4.54477 2.13317 5.66699C2.68873 6.78921 3.4915 7.68088 4.5415 8.34199C5.5915 9.0031 6.74428 9.33366 7.99984 9.33366Z" fill="#C0BEBE"/>
</svg>
